<mxfile host="65bd71144e">
    <diagram id="7M0adTM-_JS_iN-lvnU5" name="Page-1">
        <mxGraphModel dx="1865" dy="1060" grid="1" gridSize="10" guides="1" tooltips="1" connect="1" arrows="1" fold="1" page="1" pageScale="1" pageWidth="850" pageHeight="1100" math="0" shadow="0">
            <root>
                <mxCell id="0"/>
                <mxCell id="1" parent="0"/>
                <mxCell id="2" value="" style="edgeStyle=none;html=1;strokeColor=#FF0000;fontColor=#030303;" edge="1" parent="1">
                    <mxGeometry relative="1" as="geometry">
                        <mxPoint x="227" y="976.7" as="sourcePoint"/>
                        <mxPoint x="267" y="976.7" as="targetPoint"/>
                    </mxGeometry>
                </mxCell>
                <mxCell id="3" value="&lt;font color=&quot;#ff0000&quot;&gt;=&lt;/font&gt;" style="text;html=1;strokeColor=none;fillColor=none;align=center;verticalAlign=middle;whiteSpace=wrap;rounded=0;fontColor=#030303;" vertex="1" parent="1">
                    <mxGeometry x="257" y="962" width="60" height="30" as="geometry"/>
                </mxCell>
                <mxCell id="4" value="" style="endArrow=none;html=1;strokeColor=#FF0000;fontColor=#030303;" edge="1" parent="1">
                    <mxGeometry width="50" height="50" relative="1" as="geometry">
                        <mxPoint x="307" y="976.74" as="sourcePoint"/>
                        <mxPoint x="357" y="977" as="targetPoint"/>
                    </mxGeometry>
                </mxCell>
                <mxCell id="5" value="" style="endArrow=none;html=1;strokeColor=#FF0000;fontColor=#030303;" edge="1" parent="1">
                    <mxGeometry width="50" height="50" relative="1" as="geometry">
                        <mxPoint x="357" y="987" as="sourcePoint"/>
                        <mxPoint x="357" y="967" as="targetPoint"/>
                        <Array as="points">
                            <mxPoint x="337" y="977"/>
                        </Array>
                    </mxGeometry>
                </mxCell>
                <mxCell id="6" value="&lt;font color=&quot;#030303&quot;&gt;BRANDS&lt;/font&gt;" style="swimlane;fontStyle=0;childLayout=stackLayout;horizontal=1;startSize=30;horizontalStack=0;resizeParent=1;resizeParentMax=0;resizeLast=0;collapsible=1;marginBottom=0;whiteSpace=wrap;html=1;fillColor=#99CCFF;strokeColor=#000000;" vertex="1" parent="1">
                    <mxGeometry x="240" y="405" width="140" height="80" as="geometry"/>
                </mxCell>
                <mxCell id="7" value="&lt;font color=&quot;#0d0c0c&quot;&gt;id&lt;br&gt;name&lt;br&gt;&lt;/font&gt;" style="text;strokeColor=#000000;fillColor=#FFFFFF;align=left;verticalAlign=middle;spacingLeft=4;spacingRight=4;overflow=hidden;points=[[0,0.5],[1,0.5]];portConstraint=eastwest;rotatable=0;whiteSpace=wrap;html=1;" vertex="1" parent="6">
                    <mxGeometry y="30" width="140" height="50" as="geometry"/>
                </mxCell>
                <mxCell id="8" value="&lt;font color=&quot;#030303&quot;&gt;CITIES&lt;/font&gt;" style="swimlane;fontStyle=0;childLayout=stackLayout;horizontal=1;startSize=30;horizontalStack=0;resizeParent=1;resizeParentMax=0;resizeLast=0;collapsible=1;marginBottom=0;whiteSpace=wrap;html=1;fillColor=#FFCCCC;strokeColor=#000000;" vertex="1" parent="1">
                    <mxGeometry x="920" y="440" width="140" height="90" as="geometry"/>
                </mxCell>
                <mxCell id="9" value="&lt;font color=&quot;#0d0c0c&quot;&gt;id&lt;br&gt;commune_id&lt;br&gt;name&lt;br&gt;&lt;/font&gt;" style="text;strokeColor=#000000;fillColor=#FFFFFF;align=left;verticalAlign=middle;spacingLeft=4;spacingRight=4;overflow=hidden;points=[[0,0.5],[1,0.5]];portConstraint=eastwest;rotatable=0;whiteSpace=wrap;html=1;" vertex="1" parent="8">
                    <mxGeometry y="30" width="140" height="60" as="geometry"/>
                </mxCell>
                <mxCell id="47" style="edgeStyle=none;html=1;entryX=1;entryY=0.5;entryDx=0;entryDy=0;strokeColor=#FF0000;exitX=0;exitY=0.5;exitDx=0;exitDy=0;" edge="1" parent="1" source="11" target="9">
                    <mxGeometry relative="1" as="geometry">
                        <mxPoint x="1120" y="510" as="sourcePoint"/>
                    </mxGeometry>
                </mxCell>
                <mxCell id="10" value="&lt;font color=&quot;#030303&quot;&gt;COMMUNES&lt;/font&gt;" style="swimlane;fontStyle=0;childLayout=stackLayout;horizontal=1;startSize=30;horizontalStack=0;resizeParent=1;resizeParentMax=0;resizeLast=0;collapsible=1;marginBottom=0;whiteSpace=wrap;html=1;fillColor=#FFCCCC;strokeColor=#000000;" vertex="1" parent="1">
                    <mxGeometry x="1120" y="440" width="140" height="90" as="geometry"/>
                </mxCell>
                <mxCell id="11" value="&lt;font color=&quot;#0d0c0c&quot;&gt;id&lt;br&gt;disctrict_id&lt;br&gt;name&lt;br&gt;&lt;/font&gt;" style="text;strokeColor=#000000;fillColor=#FFFFFF;align=left;verticalAlign=middle;spacingLeft=4;spacingRight=4;overflow=hidden;points=[[0,0.5],[1,0.5]];portConstraint=eastwest;rotatable=0;whiteSpace=wrap;html=1;" vertex="1" parent="10">
                    <mxGeometry y="30" width="140" height="60" as="geometry"/>
                </mxCell>
                <mxCell id="64" style="edgeStyle=none;html=1;strokeColor=#FF0000;entryX=0.5;entryY=0;entryDx=0;entryDy=0;entryPerimeter=0;" edge="1" parent="1" source="12" target="37">
                    <mxGeometry relative="1" as="geometry">
                        <mxPoint x="740" y="390" as="targetPoint"/>
                    </mxGeometry>
                </mxCell>
                <mxCell id="12" value="&lt;font color=&quot;#030303&quot;&gt;COMPANIES&lt;/font&gt;" style="swimlane;fontStyle=0;childLayout=stackLayout;horizontal=1;startSize=30;horizontalStack=0;resizeParent=1;resizeParentMax=0;resizeLast=0;collapsible=1;marginBottom=0;whiteSpace=wrap;html=1;fillColor=#99CCFF;strokeColor=#000000;" vertex="1" parent="1">
                    <mxGeometry x="670" y="240" width="140" height="80" as="geometry"/>
                </mxCell>
                <mxCell id="13" value="&lt;font color=&quot;#0d0c0c&quot;&gt;id&lt;br&gt;name&lt;br&gt;&lt;/font&gt;" style="text;strokeColor=#000000;fillColor=#FFFFFF;align=left;verticalAlign=middle;spacingLeft=4;spacingRight=4;overflow=hidden;points=[[0,0.5],[1,0.5]];portConstraint=eastwest;rotatable=0;whiteSpace=wrap;html=1;" vertex="1" parent="12">
                    <mxGeometry y="30" width="140" height="50" as="geometry"/>
                </mxCell>
                <mxCell id="14" value="&lt;font color=&quot;#030303&quot;&gt;CONTACTS&lt;/font&gt;" style="swimlane;fontStyle=0;childLayout=stackLayout;horizontal=1;startSize=30;horizontalStack=0;resizeParent=1;resizeParentMax=0;resizeLast=0;collapsible=1;marginBottom=0;whiteSpace=wrap;html=1;fillColor=#99FFFF;strokeColor=#000000;" vertex="1" parent="1">
                    <mxGeometry x="440" y="670" width="140" height="140" as="geometry"/>
                </mxCell>
                <mxCell id="15" value="&lt;font color=&quot;#0d0c0c&quot;&gt;id&lt;br&gt;supplier_id&lt;br&gt;department_id&lt;br&gt;contacttype&lt;br&gt;name&lt;br&gt;email&lt;br&gt;tel&lt;br&gt;&lt;br&gt;&lt;/font&gt;" style="text;strokeColor=#000000;fillColor=#FFFFFF;align=left;verticalAlign=middle;spacingLeft=4;spacingRight=4;overflow=hidden;points=[[0,0.5],[1,0.5]];portConstraint=eastwest;rotatable=0;whiteSpace=wrap;html=1;" vertex="1" parent="14">
                    <mxGeometry y="30" width="140" height="110" as="geometry"/>
                </mxCell>
                <mxCell id="16" value="&lt;font color=&quot;#030303&quot;&gt;COUNTRIES&lt;/font&gt;" style="swimlane;fontStyle=0;childLayout=stackLayout;horizontal=1;startSize=30;horizontalStack=0;resizeParent=1;resizeParentMax=0;resizeLast=0;collapsible=1;marginBottom=0;whiteSpace=wrap;html=1;fillColor=#FFCCCC;strokeColor=#000000;" vertex="1" parent="1">
                    <mxGeometry x="1120" y="130" width="140" height="100" as="geometry"/>
                </mxCell>
                <mxCell id="17" value="&lt;font color=&quot;#0d0c0c&quot;&gt;id&lt;br&gt;code&lt;br&gt;name&lt;br&gt;display&lt;br&gt;&lt;/font&gt;" style="text;strokeColor=#000000;fillColor=#FFFFFF;align=left;verticalAlign=middle;spacingLeft=4;spacingRight=4;overflow=hidden;points=[[0,0.5],[1,0.5]];portConstraint=eastwest;rotatable=0;whiteSpace=wrap;html=1;" vertex="1" parent="16">
                    <mxGeometry y="30" width="140" height="70" as="geometry"/>
                </mxCell>
                <mxCell id="61" style="edgeStyle=none;html=1;entryX=0;entryY=0.5;entryDx=0;entryDy=0;strokeColor=#FF0000;" edge="1" parent="1" source="18" target="14">
                    <mxGeometry relative="1" as="geometry"/>
                </mxCell>
                <mxCell id="18" value="&lt;font color=&quot;#030303&quot;&gt;DEPARTMENTS&lt;/font&gt;" style="swimlane;fontStyle=0;childLayout=stackLayout;horizontal=1;startSize=30;horizontalStack=0;resizeParent=1;resizeParentMax=0;resizeLast=0;collapsible=1;marginBottom=0;whiteSpace=wrap;html=1;fillColor=#99FFFF;strokeColor=#000000;" vertex="1" parent="1">
                    <mxGeometry x="220" y="695" width="140" height="90" as="geometry"/>
                </mxCell>
                <mxCell id="19" value="&lt;font color=&quot;#0d0c0c&quot;&gt;id&lt;br&gt;name&lt;br&gt;&lt;/font&gt;" style="text;strokeColor=#000000;fillColor=#FFFFFF;align=left;verticalAlign=middle;spacingLeft=4;spacingRight=4;overflow=hidden;points=[[0,0.5],[1,0.5]];portConstraint=eastwest;rotatable=0;whiteSpace=wrap;html=1;" vertex="1" parent="18">
                    <mxGeometry y="30" width="140" height="60" as="geometry"/>
                </mxCell>
                <mxCell id="20" value="&lt;font color=&quot;#030303&quot;&gt;DETAILDEFS&lt;/font&gt;" style="swimlane;fontStyle=0;childLayout=stackLayout;horizontal=1;startSize=30;horizontalStack=0;resizeParent=1;resizeParentMax=0;resizeLast=0;collapsible=1;marginBottom=0;whiteSpace=wrap;html=1;fillColor=#E5CCFF;strokeColor=#E5CCFF;" vertex="1" parent="1">
                    <mxGeometry x="1150" y="875" width="140" height="160" as="geometry"/>
                </mxCell>
                <mxCell id="21" value="&lt;font color=&quot;#0d0c0c&quot;&gt;id&lt;br&gt;group_id&lt;br&gt;&lt;/font&gt;&lt;span style=&quot;color: rgb(13, 12, 12);&quot;&gt;propertytype_id&lt;/span&gt;&lt;font color=&quot;#0d0c0c&quot;&gt;&lt;br&gt;&lt;/font&gt;&lt;span style=&quot;color: rgb(13, 12, 12);&quot;&gt;vlevel&lt;br&gt;&lt;/span&gt;&lt;font color=&quot;#0d0c0c&quot;&gt;display_order&lt;br&gt;properties&lt;br&gt;property_DEF&lt;br&gt;display_name&lt;br&gt;&lt;/font&gt;" style="text;strokeColor=#000000;fillColor=#FFFFFF;align=left;verticalAlign=middle;spacingLeft=4;spacingRight=4;overflow=hidden;points=[[0,0.5],[1,0.5]];portConstraint=eastwest;rotatable=0;whiteSpace=wrap;html=1;" vertex="1" parent="20">
                    <mxGeometry y="30" width="140" height="130" as="geometry"/>
                </mxCell>
                <mxCell id="60" style="edgeStyle=none;html=1;strokeColor=#FF0000;" edge="1" parent="1" source="23" target="20">
                    <mxGeometry relative="1" as="geometry"/>
                </mxCell>
                <mxCell id="23" value="&lt;font color=&quot;#030303&quot;&gt;DETAILGROUPS&lt;/font&gt;" style="swimlane;fontStyle=0;childLayout=stackLayout;horizontal=1;startSize=30;horizontalStack=0;resizeParent=1;resizeParentMax=0;resizeLast=0;collapsible=1;marginBottom=0;whiteSpace=wrap;html=1;fillColor=#E5CCFF;strokeColor=#000000;" vertex="1" parent="1">
                    <mxGeometry x="1150" y="720" width="140" height="90" as="geometry"/>
                </mxCell>
                <mxCell id="24" value="&lt;font color=&quot;#0d0c0c&quot;&gt;id&lt;br&gt;display_order&lt;br&gt;name&lt;br&gt;&lt;/font&gt;" style="text;strokeColor=#000000;fillColor=#FFFFFF;align=left;verticalAlign=middle;spacingLeft=4;spacingRight=4;overflow=hidden;points=[[0,0.5],[1,0.5]];portConstraint=eastwest;rotatable=0;whiteSpace=wrap;html=1;" vertex="1" parent="23">
                    <mxGeometry y="30" width="140" height="60" as="geometry"/>
                </mxCell>
                <mxCell id="46" style="edgeStyle=none;html=1;exitX=0.5;exitY=1;exitDx=0;exitDy=0;entryX=0.5;entryY=0;entryDx=0;entryDy=0;strokeColor=#FF0000;" edge="1" parent="1" source="25" target="10">
                    <mxGeometry relative="1" as="geometry"/>
                </mxCell>
                <mxCell id="25" value="&lt;font color=&quot;#030303&quot;&gt;DISTRICTS&lt;/font&gt;" style="swimlane;fontStyle=0;childLayout=stackLayout;horizontal=1;startSize=30;horizontalStack=0;resizeParent=1;resizeParentMax=0;resizeLast=0;collapsible=1;marginBottom=0;whiteSpace=wrap;html=1;fillColor=#FFCCCC;strokeColor=#000000;" vertex="1" parent="1">
                    <mxGeometry x="1120" y="280" width="140" height="120" as="geometry"/>
                </mxCell>
                <mxCell id="26" value="&lt;font color=&quot;#0d0c0c&quot;&gt;id&lt;br&gt;country_id&lt;br&gt;code&lt;br&gt;name&lt;br&gt;display_order&lt;br&gt;&lt;/font&gt;" style="text;strokeColor=#000000;fillColor=#FFFFFF;align=left;verticalAlign=middle;spacingLeft=4;spacingRight=4;overflow=hidden;points=[[0,0.5],[1,0.5]];portConstraint=eastwest;rotatable=0;whiteSpace=wrap;html=1;" vertex="1" parent="25">
                    <mxGeometry y="30" width="140" height="90" as="geometry"/>
                </mxCell>
                <mxCell id="27" value="&lt;font color=&quot;#030303&quot;&gt;HITCOUNT&lt;/font&gt;" style="swimlane;fontStyle=0;childLayout=stackLayout;horizontal=1;startSize=30;horizontalStack=0;resizeParent=1;resizeParentMax=0;resizeLast=0;collapsible=1;marginBottom=0;whiteSpace=wrap;html=1;fillColor=#99CCFF;strokeColor=#CCCCFF;" vertex="1" parent="1">
                    <mxGeometry x="920" y="650" width="140" height="120" as="geometry"/>
                </mxCell>
                <mxCell id="28" value="&lt;font color=&quot;#0d0c0c&quot;&gt;id&lt;br&gt;supplier_id&lt;br&gt;year&lt;br&gt;month&lt;br&gt;hitcount&lt;br&gt;&lt;/font&gt;" style="text;strokeColor=#000000;fillColor=#FFFFFF;align=left;verticalAlign=middle;spacingLeft=4;spacingRight=4;overflow=hidden;points=[[0,0.5],[1,0.5]];portConstraint=eastwest;rotatable=0;whiteSpace=wrap;html=1;" vertex="1" parent="27">
                    <mxGeometry y="30" width="140" height="90" as="geometry"/>
                </mxCell>
                <mxCell id="65" style="edgeStyle=none;html=1;entryX=0;entryY=0.5;entryDx=0;entryDy=0;strokeColor=#FF0000;" edge="1" parent="1" source="29" target="38">
                    <mxGeometry relative="1" as="geometry"/>
                </mxCell>
                <mxCell id="29" value="&lt;font color=&quot;#030303&quot;&gt;MEMBERTYPES&lt;/font&gt;" style="swimlane;fontStyle=0;childLayout=stackLayout;horizontal=1;startSize=30;horizontalStack=0;resizeParent=1;resizeParentMax=0;resizeLast=0;collapsible=1;marginBottom=0;whiteSpace=wrap;html=1;fillColor=#99CCFF;strokeColor=#000000;" vertex="1" parent="1">
                    <mxGeometry x="490" y="320" width="140" height="100" as="geometry"/>
                </mxCell>
                <mxCell id="30" value="&lt;font color=&quot;#0d0c0c&quot;&gt;id&lt;br&gt;name&lt;br&gt;sort_order&lt;br&gt;ulevel&lt;br&gt;&lt;/font&gt;" style="text;strokeColor=#000000;fillColor=#FFFFFF;align=left;verticalAlign=middle;spacingLeft=4;spacingRight=4;overflow=hidden;points=[[0,0.5],[1,0.5]];portConstraint=eastwest;rotatable=0;whiteSpace=wrap;html=1;" vertex="1" parent="29">
                    <mxGeometry y="30" width="140" height="70" as="geometry"/>
                </mxCell>
                <mxCell id="31" value="&lt;font color=&quot;#030303&quot;&gt;PROPERTIES&lt;/font&gt;" style="swimlane;fontStyle=0;childLayout=stackLayout;horizontal=1;startSize=30;horizontalStack=0;resizeParent=1;resizeParentMax=0;resizeLast=0;collapsible=1;marginBottom=0;whiteSpace=wrap;html=1;fillColor=#FF99CC;strokeColor=#000000;" vertex="1" parent="1">
                    <mxGeometry x="670" y="740" width="140" height="100" as="geometry"/>
                </mxCell>
                <mxCell id="32" value="&lt;font color=&quot;#0d0c0c&quot;&gt;id&lt;br&gt;supplier_id&lt;br&gt;propertype_id&lt;br&gt;content&lt;br&gt;&lt;/font&gt;" style="text;strokeColor=#000000;fillColor=#FFFFFF;align=left;verticalAlign=middle;spacingLeft=4;spacingRight=4;overflow=hidden;points=[[0,0.5],[1,0.5]];portConstraint=eastwest;rotatable=0;whiteSpace=wrap;html=1;" vertex="1" parent="31">
                    <mxGeometry y="30" width="140" height="70" as="geometry"/>
                </mxCell>
                <mxCell id="33" value="&lt;font color=&quot;#030303&quot;&gt;PROPERTYTYPES&lt;/font&gt;" style="swimlane;fontStyle=0;childLayout=stackLayout;horizontal=1;startSize=30;horizontalStack=0;resizeParent=1;resizeParentMax=0;resizeLast=0;collapsible=1;marginBottom=0;whiteSpace=wrap;html=1;fillColor=#FF99CC;strokeColor=#000000;" vertex="1" parent="1">
                    <mxGeometry x="920" y="885" width="140" height="140" as="geometry"/>
                </mxCell>
                <mxCell id="34" value="&lt;font color=&quot;#0d0c0c&quot;&gt;id&lt;br&gt;csvreg&lt;br&gt;name&lt;br&gt;proptype&lt;br&gt;display&lt;br&gt;is_filter&lt;br&gt;&lt;/font&gt;" style="text;strokeColor=#000000;fillColor=#FFFFFF;align=left;verticalAlign=middle;spacingLeft=4;spacingRight=4;overflow=hidden;points=[[0,0.5],[1,0.5]];portConstraint=eastwest;rotatable=0;whiteSpace=wrap;html=1;" vertex="1" parent="33">
                    <mxGeometry y="30" width="140" height="110" as="geometry"/>
                </mxCell>
                <mxCell id="35" value="&lt;font color=&quot;#030303&quot;&gt;RUBRIEKEN&lt;/font&gt;" style="swimlane;fontStyle=0;childLayout=stackLayout;horizontal=1;startSize=30;horizontalStack=0;resizeParent=1;resizeParentMax=0;resizeLast=0;collapsible=1;marginBottom=0;whiteSpace=wrap;html=1;fillColor=#E6FFCC;strokeColor=#000000;" vertex="1" parent="1">
                    <mxGeometry x="880" y="125" width="140" height="110" as="geometry"/>
                </mxCell>
                <mxCell id="36" value="&lt;font color=&quot;#0d0c0c&quot;&gt;id&lt;br&gt;parent&lt;br&gt;display_order&lt;br&gt;name&lt;br&gt;&lt;/font&gt;" style="text;strokeColor=#000000;fillColor=#FFFFFF;align=left;verticalAlign=middle;spacingLeft=4;spacingRight=4;overflow=hidden;points=[[0,0.5],[1,0.5]];portConstraint=eastwest;rotatable=0;whiteSpace=wrap;html=1;" vertex="1" parent="35">
                    <mxGeometry y="30" width="140" height="80" as="geometry"/>
                </mxCell>
                <mxCell id="37" value="&lt;font color=&quot;#030303&quot;&gt;SUPPLIERS&lt;/font&gt;" style="swimlane;fontStyle=0;childLayout=stackLayout;horizontal=1;startSize=30;horizontalStack=0;resizeParent=1;resizeParentMax=0;resizeLast=0;collapsible=1;marginBottom=0;whiteSpace=wrap;html=1;fillColor=#FFCC99;strokeColor=#000000;" vertex="1" parent="1">
                    <mxGeometry x="670" y="400" width="140" height="210" as="geometry"/>
                </mxCell>
                <mxCell id="38" value="&lt;font color=&quot;#0d0c0c&quot;&gt;id&lt;br&gt;membertype_id&lt;br&gt;company_id&lt;br&gt;name&lt;br&gt;straat&lt;br&gt;huisnr&lt;br&gt;postcode&lt;br&gt;city_id&lt;br&gt;p_address&lt;br&gt;p_postcode&lt;br&gt;p_city_id&lt;br&gt;&lt;/font&gt;" style="text;strokeColor=#000000;fillColor=#FFFFFF;align=left;verticalAlign=middle;spacingLeft=4;spacingRight=4;overflow=hidden;points=[[0,0.5],[1,0.5]];portConstraint=eastwest;rotatable=0;whiteSpace=wrap;html=1;" vertex="1" parent="37">
                    <mxGeometry y="30" width="140" height="180" as="geometry"/>
                </mxCell>
                <mxCell id="39" value="&lt;font color=&quot;#030303&quot;&gt;SUPPLIERS_RUBRIEK&lt;/font&gt;" style="swimlane;fontStyle=0;childLayout=stackLayout;horizontal=1;startSize=30;horizontalStack=0;resizeParent=1;resizeParentMax=0;resizeLast=0;collapsible=1;marginBottom=0;whiteSpace=wrap;html=1;fillColor=#E6FFCC;strokeColor=#000000;" vertex="1" parent="1">
                    <mxGeometry x="850" y="290" width="200" height="80" as="geometry"/>
                </mxCell>
                <mxCell id="40" value="&lt;font color=&quot;#0d0c0c&quot;&gt;id&lt;br&gt;suppliers_id&lt;br&gt;rubriek_id&lt;br&gt;&lt;/font&gt;" style="text;strokeColor=#000000;fillColor=#FFFFFF;align=left;verticalAlign=middle;spacingLeft=4;spacingRight=4;overflow=hidden;points=[[0,0.5],[1,0.5]];portConstraint=eastwest;rotatable=0;whiteSpace=wrap;html=1;" vertex="1" parent="39">
                    <mxGeometry y="30" width="200" height="50" as="geometry"/>
                </mxCell>
                <mxCell id="41" value="&lt;font color=&quot;#030303&quot;&gt;YN_PROPERTIES&lt;/font&gt;" style="swimlane;fontStyle=0;childLayout=stackLayout;horizontal=1;startSize=30;horizontalStack=0;resizeParent=1;resizeParentMax=0;resizeLast=0;collapsible=1;marginBottom=0;whiteSpace=wrap;html=1;fillColor=#FF99CC;strokeColor=#000000;" vertex="1" parent="1">
                    <mxGeometry x="670" y="900" width="140" height="110" as="geometry"/>
                </mxCell>
                <mxCell id="42" value="&lt;font color=&quot;#0d0c0c&quot;&gt;id&lt;br&gt;supplier_id&lt;br&gt;propertytype_id&lt;br&gt;content&lt;br&gt;&lt;/font&gt;" style="text;strokeColor=#000000;fillColor=#FFFFFF;align=left;verticalAlign=middle;spacingLeft=4;spacingRight=4;overflow=hidden;points=[[0,0.5],[1,0.5]];portConstraint=eastwest;rotatable=0;whiteSpace=wrap;html=1;" vertex="1" parent="41">
                    <mxGeometry y="30" width="140" height="80" as="geometry"/>
                </mxCell>
                <mxCell id="68" style="edgeStyle=none;html=1;entryX=-0.011;entryY=0.587;entryDx=0;entryDy=0;strokeColor=#FF0000;entryPerimeter=0;" edge="1" parent="1" source="43" target="38">
                    <mxGeometry relative="1" as="geometry"/>
                </mxCell>
                <mxCell id="43" value="&lt;font color=&quot;#030303&quot;&gt;PC_LAT_LONG&lt;/font&gt;" style="swimlane;fontStyle=0;childLayout=stackLayout;horizontal=1;startSize=30;horizontalStack=0;resizeParent=1;resizeParentMax=0;resizeLast=0;collapsible=1;marginBottom=0;whiteSpace=wrap;html=1;fillColor=#99CCFF;strokeColor=#000000;" vertex="1" parent="1">
                    <mxGeometry x="460" y="485" width="140" height="100" as="geometry"/>
                </mxCell>
                <mxCell id="44" value="&lt;font color=&quot;#0d0c0c&quot;&gt;id&lt;br&gt;pc6&lt;br&gt;lat&lt;br&gt;long&lt;br&gt;&lt;/font&gt;" style="text;strokeColor=#000000;fillColor=#FFFFFF;align=left;verticalAlign=middle;spacingLeft=4;spacingRight=4;overflow=hidden;points=[[0,0.5],[1,0.5]];portConstraint=eastwest;rotatable=0;whiteSpace=wrap;html=1;" vertex="1" parent="43">
                    <mxGeometry y="30" width="140" height="70" as="geometry"/>
                </mxCell>
                <mxCell id="45" value="" style="endArrow=classic;html=1;strokeColor=#FF0000;exitX=0.495;exitY=1.036;exitDx=0;exitDy=0;exitPerimeter=0;entryX=0.5;entryY=0;entryDx=0;entryDy=0;" edge="1" parent="1" source="17" target="25">
                    <mxGeometry width="50" height="50" relative="1" as="geometry">
                        <mxPoint x="1050" y="290" as="sourcePoint"/>
                        <mxPoint x="1100" y="240" as="targetPoint"/>
                    </mxGeometry>
                </mxCell>
                <mxCell id="51" value="" style="edgeStyle=none;html=1;strokeColor=#FF0000;" edge="1" parent="1" source="9" target="38">
                    <mxGeometry relative="1" as="geometry"/>
                </mxCell>
                <mxCell id="52" style="edgeStyle=none;html=1;strokeColor=#FF0000;" edge="1" parent="1" source="40" target="38">
                    <mxGeometry relative="1" as="geometry"/>
                </mxCell>
                <mxCell id="53" style="edgeStyle=none;html=1;entryX=0.5;entryY=0;entryDx=0;entryDy=0;strokeColor=#FF0000;" edge="1" parent="1" source="36" target="39">
                    <mxGeometry relative="1" as="geometry"/>
                </mxCell>
                <mxCell id="54" style="edgeStyle=none;html=1;strokeColor=#FF0000;entryX=1;entryY=0.5;entryDx=0;entryDy=0;" edge="1" parent="1" source="38" target="15">
                    <mxGeometry relative="1" as="geometry"/>
                </mxCell>
                <mxCell id="55" style="edgeStyle=none;html=1;strokeColor=#FF0000;" edge="1" parent="1" source="38" target="27">
                    <mxGeometry relative="1" as="geometry"/>
                </mxCell>
                <mxCell id="56" style="edgeStyle=none;html=1;strokeColor=#FF0000;" edge="1" parent="1" source="38" target="31">
                    <mxGeometry relative="1" as="geometry"/>
                </mxCell>
                <mxCell id="57" style="edgeStyle=none;html=1;strokeColor=#FF0000;" edge="1" parent="1" source="32" target="41">
                    <mxGeometry relative="1" as="geometry"/>
                </mxCell>
                <mxCell id="58" style="edgeStyle=none;html=1;strokeColor=#FF0000;" edge="1" parent="1" source="34">
                    <mxGeometry relative="1" as="geometry">
                        <mxPoint x="810" y="970" as="targetPoint"/>
                    </mxGeometry>
                </mxCell>
                <mxCell id="59" style="edgeStyle=none;html=1;entryX=0;entryY=0.5;entryDx=0;entryDy=0;strokeColor=#FF0000;" edge="1" parent="1" source="34" target="21">
                    <mxGeometry relative="1" as="geometry"/>
                </mxCell>
            </root>
        </mxGraphModel>
    </diagram>
</mxfile>